<svg xmlns="http://www.w3.org/2000/svg" xmlns:xlink="http://www.w3.org/1999/xlink" version="1.1" x="0px" y="0px" viewBox="0 0 100 100" style="enable-background:new 0 0 100 100;" xml:space="preserve">
	<circle cx="50" cy="50" r="50" fill="#ff824a" fill-rule="evenodd" />
  <g stroke="none" stroke-width="1" fill="#ffffff" fill-rule="evenodd">
		<path d="M95.49,43.52L95.49,43.52c-1.07-6.78-6.72-12.18-15.93-15.2c-18.87-6.2-49.1-1.5-70.36,19.5    c-3.07,3.04-5.38,5.6-4.73,8.66c0.59,2.83,3.53,4.75,8.97,7.02c0.63,2.71,2.61,4.95,5.35,5.84l13.75,4.44    c0.8,0.26,1.64,0.39,2.48,0.39c0.64,0,1.29-0.08,1.92-0.23l44.62-10.93c3.62-0.89,6.15-4.11,6.15-7.84v-2.5    c2.9-0.44,5.12-1.24,6.53-3C95.49,48.13,95.9,46.12,95.49,43.52z M77.97,33.06c0.01,0,0.02,0,0.02,0.01    c2.38,0.78,4.45,1.74,6.2,2.83c0.87,0.95,1.45,1.85,1.43,2.43c0,0.08-0.01,0.25-0.41,0.49c-4.56,2.8-5.89,6.64-5.96,9.55    c-2.27,0.14-4.74,0.31-7.42,0.6c-1.12-3.25,0.72-6.11,3.39-9.6c1.51-1.98,2.81-3.69,2.85-5.47C78.06,33.6,78.03,33.33,77.97,33.06    z M65.56,31.58c-0.04-0.2-0.11-0.43-0.23-0.67c2.63,0.12,5.15,0.4,7.52,0.85c1.31,0.71,2.22,1.47,2.21,2.08    c-0.01,0.8-1.19,2.35-2.23,3.71c-2.2,2.88-5.32,6.99-4.01,11.81c-2.22,0.32-4.57,0.74-7.02,1.32c-1.84-3.22-0.43-5.91,1.31-9.19    C64.62,38.62,66.34,35.37,65.56,31.58z M49.7,33.11c-0.22-0.31-0.46-0.58-0.72-0.83c3.49-0.71,6.94-1.16,10.26-1.34    c1.98,0.29,3.28,0.74,3.38,1.24c0.56,2.74-0.76,5.25-2.17,7.9c-1.77,3.34-3.72,7.05-1.66,11.34c-3.36,0.9-6.49,1.92-9.42,2.95    c-0.92-2.27-0.16-5.52,0.64-8.94C51.03,41.03,52.1,36.48,49.7,33.11z M44.21,33.42c1.3,0.12,2.41,0.54,3.05,1.44    c1.61,2.26,0.75,5.96-0.17,9.89c-0.84,3.57-1.75,7.5-0.55,10.64c-1.11,0.41-2.2,0.81-3.26,1.21c-1.06,0.4-2.09,0.78-3.09,1.15    c-1.44-1.07-1.48-2.8-1.42-5.8c0.08-3.71,0.18-8.33-4.15-12.39c-0.8-0.75-1.66-1.27-2.55-1.62    C36.06,36.04,40.14,34.53,44.21,33.42z M27.11,40.5c1.9-0.35,3.92-0.2,5.45,1.24c3.35,3.14,3.28,6.7,3.2,10.13    c-0.05,2.39-0.1,4.99,1.33,6.97c-2.39,0.82-4.64,1.49-6.8,1.93c-1.38-0.85-1.88-2.52-2.53-5.05c-0.72-2.82-1.54-6.02-4.61-8.03    c-1.35-0.89-3.12-1.2-4.88-1.23C21.11,44.21,24.07,42.24,27.11,40.5z M9.36,55.49c0.02-0.38,0.61-1.4,3.35-4.11    c0.54-0.53,1.09-1.03,1.64-1.54c2.34-0.43,5.53-0.7,7.16,0.36c2.09,1.37,2.7,3.75,3.35,6.27c0.41,1.58,0.86,3.35,1.81,4.81    c-2.8,0.19-5.52-0.12-8.28-1.18C10.96,57.25,9.54,55.96,9.36,55.49z M82.71,55.18c0,1.42-0.96,2.64-2.34,2.98L35.75,69.08    c-0.55,0.14-1.13,0.11-1.67-0.06l-8.44-2.73c6.24-0.13,12.5-2.45,19.39-5.02c5.07-1.9,10.83-4.04,17.35-5.62    c7.15-1.72,13.44-2.09,18.5-2.39c0.63-0.04,1.24-0.07,1.83-0.11V55.18z M90.34,46.55c-0.86,1.06-4.22,1.39-8.07,1.63    c0.1-1.87,0.95-4.62,4.52-6.81c0.89-0.55,1.37-1.21,1.61-1.83c1.15,1.46,1.89,3.06,2.16,4.76C90.67,45.06,90.73,46.07,90.34,46.55    z" />
	</g>
</svg>